# xmcd
#
# Track frame offsets: 
#        150
#        31015
#        65920
#        88195
#        128610
#        139787
#        167657
#        198315
#        221515
#        252725
#
# Disc length: 3745 seconds
#
# Revision: 1
# Processed by: cddbd v1.5.2PL0 Copyright (c) Steve Scherf et al.
# Submitted via: ExactAudioCopy v0.99pb4
#
DISCID=920e9f0a
DTITLE=Various Artist - Russian Style Il (jazz in Russia)
DYEAR=1998
DGENRE=Jazz
TTITLE0=Triptych in the style of Jazz
TTITLE1=Ain't Misbehavin'
TTITLE2=Cold
TTITLE3=Umtza - Umtza
TTITLE4=Waltz
TTITLE5=Delusion
TTITLE6=Messenger
TTITLE7=First recording <<a>>
TTITLE8=Raga blues
TTITLE9=Americanstandars,russian style
EXTD=
EXTT0=
EXTT1=
EXTT2=
EXTT3=
EXTT4=
EXTT5=
EXTT6=
EXTT7=
EXTT8=
EXTT9=
PLAYORDER=
